<?xml version="1.0" encoding="UTF-8"?>
<!DOCTYPE svg PUBLIC "-//W3C//DTD SVG 1.1//EN" "http://www.w3.org/Graphics/SVG/1.1/DTD/svg11.dtd">
<!-- Creator: CorelDRAW 2020 (64-Bit) -->
<svg xmlns="http://www.w3.org/2000/svg" xml:space="preserve" width="300mm" height="300mm" version="1.1" style="shape-rendering:geometricPrecision; text-rendering:geometricPrecision; image-rendering:optimizeQuality; fill-rule:evenodd; clip-rule:evenodd"
viewBox="0 0 29994.14 29994.14"
 xmlns:xlink="http://www.w3.org/1999/xlink"
 xmlns:xodm="http://www.corel.com/coreldraw/odm/2003">
 <defs>
  <style type="text/css">
   <![CDATA[
    .fil0 {fill:none}
    .fil1 {fill:#332C2B;fill-rule:nonzero}
   ]]>
  </style>
 </defs>
 <g id="图层_x0020_1">
  <metadata id="CorelCorpID_0Corel-Layer"/>
  <polygon class="fil0" points="-0,0 29994.14,0 29994.14,29994.14 -0,29994.14 "/>
  <g id="_5498671584">
   <g>
    <path class="fil1" d="M5356.7 9208.04c-19.08,-51.15 -21.06,-89.71 -5.93,-115.71 19.74,10.06 21.71,47.79 5.93,115.71zm-28.94 1.67c2.63,3.36 5.27,5.04 7.89,5.04 1.32,10.06 -0.65,17.61 -5.92,22.64 -7.89,5.03 -11.17,10.06 -11.17,16.77 -13.16,-3.35 -13.16,-18.45 0,-46.11 4.6,0 7.89,0.84 9.2,1.67zm528.06 1776.63c-90.09,14.26 -142.04,50.31 -155.85,108.16 42.08,-39.4 94.03,-75.46 155.85,-108.16zm-1464.48 -123.25c-2.62,3.35 -15.13,56.18 -38.14,157.63 -1.31,14.25 0,21.8 3.95,21.8 3.29,0 3.95,-7.55 1.97,-21.8 1.32,-5.04 4.61,-20.13 11.19,-46.12 6.57,-25.15 12.49,-47.79 17.1,-67.07 15.79,-52.83 24.34,-86.36 25.64,-100.62 -7.9,22.65 -15.13,22.65 -21.71,0l0 56.18zm1942.56 -1910.78c15.13,-11.74 25.64,-22.65 30.24,-31.86 -53.92,8.39 -74.97,28.5 -63.12,61.21 5.91,-11.74 17.09,-20.97 32.87,-29.34zm995.62 -901.31c-2.64,0 -4.61,-0.84 -5.92,-2.52 -1.32,-1.67 -2.64,-2.51 -3.29,-2.51l-42.74 68.75c-2.64,0 -5.27,1.68 -7.9,5.03 -2.63,3.36 -1.97,5.87 1.97,7.55 6.58,-10.06 19.74,-25.16 38.8,-44.43 19.08,-18.45 33.54,-32.7 42.09,-44.44 3.94,-1.68 -3.95,-6.71 -23.02,-15.09l0 27.66zm148.61 -348.79c66.43,-90.54 110.48,-161.81 130.86,-213.8 38.8,-98.09 30.9,-177.75 -23.02,-238.11 -33.53,55.34 -53.27,81.33 -59.84,77.97 16.44,-58.69 24.99,-93.9 24.99,-105.64 -6.57,0 -20.39,-2.52 -42.09,-6.71 -14.47,-5.03 -28.93,-5.87 -44.71,-2.52 -3.94,4.2 -6.58,11.74 -7.24,21.81 -1.31,8.38 -5.26,14.25 -11.83,17.61 -11.85,-11.74 -19.08,-19.29 -23.02,-23.48 -3.95,-4.2 -5.27,-7.55 -3.95,-9.23 -11.84,36.05 -34.85,58.69 -69.71,67.08 -7.24,0.84 -24.34,3.35 -49.98,6.71 -24.34,3.35 -41.43,6.71 -51.95,10.06 -9.87,3.36 -51.95,35.21 -124.95,95.58 -41.43,32.7 -157.82,144.21 -350.5,334.53 -14.47,42.76 -42.74,82.16 -84.83,119.9 -36.16,103.13 -147.3,231.4 -333.4,383.17 -24.33,29.34 -45.37,55.33 -61.81,77.97 -16.45,21.8 -32.88,42.75 -49.32,62.04 -15.79,20.13 -28.94,36.05 -38.14,47.79 -9.86,12.58 -18.42,23.48 -24.99,33.53 -7.24,10.07 -11.85,16.78 -13.81,19.29 -1.98,3.36 -1.98,5.03 -0.66,5.03 -32.22,32.7 -63.14,83 -92.72,150.08 -39.46,89.71 -65.11,144.21 -74.97,161.82 -28.28,46.11 -88.12,121.58 -179.53,226.38 -80.88,91.39 -139.4,170.21 -174.92,235.6l-3.95 0 -15.78 0c-16.45,34.37 -38.8,74.62 -67.08,120.73 -28.28,45.28 -48.66,82.17 -61.82,110.68 23.02,-33.54 74.97,-80.49 155.85,-142.53 74.97,-59.53 124.29,-109.84 148.62,-152.6 17.75,-10.06 43.4,-28.5 76.94,-56.17 36.16,-30.18 62.47,-46.95 78.9,-51.99 64.45,-113.19 217.67,-254.88 460.98,-425.08 30.25,-19.29 112.45,-87.2 246.6,-203.74 98.64,-86.36 182.15,-147.56 249.89,-181.94 0,-3.35 1.31,-10.9 3.94,-24.31 2.64,-13.42 3.3,-22.65 1.98,-29.35 19.07,-8.38 36.82,-25.15 51.95,-51.98 23.02,-36.05 35.5,-53.66 36.82,-53.66l1.97 0c1.32,0 6.58,-4.19 16.45,-10.9 9.21,-7.55 19.73,-15.09 29.59,-22.64 10.52,-6.71 24.99,-17.61 44.71,-30.18 34.2,-25.16 53.92,-57.85 57.87,-98.94 40.77,-40.24 88.12,-100.61 142.04,-178.59 49.98,-72.1 97.32,-133.3 140.72,-181.93 -6.57,-21.8 -8.54,-38.57 -5.92,-51.98 10.53,1.67 20.4,-4.2 28.93,-16.78 7.89,-11.74 17.11,-17.61 26.96,-17.61 -1.31,-31.01 4.6,-64.56 17.76,-100.61 13.82,-37.72 31.56,-56.17 51.96,-56.17 -45.38,153.43 -67.74,232.24 -67.74,235.59 -6.58,0 -11.84,-0.84 -16.44,-2.51 -4.62,-1.68 -7.24,-3.36 -9.22,-5.04 -1.97,-1.67 -2.63,-3.35 -1.31,-5.03 -30.91,95.58 -86.8,192.84 -167.69,292.61 0,6.71 1.97,14.26 5.91,21.81 5.27,6.7 7.24,15.09 5.93,25.15 -11.84,-3.35 -19.74,2.52 -25,16.78 -5.26,13.41 -7.23,22.64 -5.91,29.34 42.74,-46.96 109.15,-132.47 200.56,-254.89zm-2262.15 1620.68c24.34,-60.36 49.98,-80.48 75.63,-61.2 -10.53,22.64 -42.74,66.24 -96.67,129.95 -146.64,176.91 -242.65,321.12 -288.68,432.63 0,10.07 -2.63,12.58 -7.89,7.55 -6.58,-10.06 -13.16,-12.58 -19.08,-7.55 -195.3,316.09 -327.49,550.01 -397.19,702.6 14.47,22.65 13.81,50.31 -1.97,83.01 -20.4,41.08 -30.9,72.94 -30.9,96.41 103.9,-249.01 263.03,-517.31 476.1,-803.21 67.73,-93.9 159.8,-211.28 275.54,-353.82 120.34,-152.59 211.75,-270.81 273.56,-356.33 -20.38,-25.98 -31.56,-53.66 -32.87,-83.84 -2.63,-34.37 8.55,-60.37 32.87,-77.97 -1.31,15.94 16.45,40.25 53.93,72.95 102.59,-104.8 157.82,-188.64 165.71,-252.36 36.18,1.67 50.65,4.19 44.07,7.54 18.41,-23.48 32.21,-46.95 42.74,-71.27 16.44,-36.05 30.9,-60.37 42.08,-71.27 5.27,-6.71 13.16,-20.12 23.02,-39.4 14.48,-23.48 24.34,-37.73 30.9,-44.44 11.85,-11.74 37.49,-33.53 76.94,-66.24 48.01,-34.37 75.63,-56.17 82.85,-63.72 9.21,-6.71 40.12,-41.08 92.72,-103.13 65.77,-75.46 100.62,-125.77 105.88,-150.07 1.31,0 4.61,-1.68 10.52,-5.04 5.92,-3.35 10.53,-5.87 14.47,-7.54l23.02 -14.26c13.16,-16.77 57.87,-66.24 134.81,-150.08 59.19,-62.04 98.64,-119.9 117.71,-171.88 19.08,3.35 30.25,3.35 32.88,0 53.93,-85.52 84.17,-140.01 90.75,-164.33 4.6,1.67 13.15,0.83 24.99,-2.52 5.92,-5.03 13.82,-5.87 23.02,-2.52 184.78,-212.96 320.91,-374.78 408.37,-486.29 114.43,-145.88 190.71,-236.43 229.51,-270.82 105.22,-94.74 215.04,-134.98 329.46,-119.89 102.59,14.25 186.1,62.88 249.89,145.04 71.02,93.07 83.51,197.87 38.8,314.42 -43.41,113.19 -132.84,267.46 -267.65,463.65 -195.31,280.04 -424.16,543.3 -685.88,788.96 -295.27,271.66 -524.11,465.33 -685.88,579.36 -9.21,5.03 -91.41,66.24 -246.61,184.45 -117.05,85.52 -201.22,144.21 -252.52,176.92 -671.41,400.76 -1048.87,809.08 -1131.07,1223.26 -23.02,113.19 4.6,238.95 82.86,378.14 73.65,130.79 152.56,215.48 237.39,253.2 111.79,-20.12 332.75,-154.27 664.17,-403.28 150.6,-114.03 261.73,-130.79 333.4,-48.63 30.91,37.73 48,84.68 49.98,142.53 3.95,62.05 -9.21,116.55 -40.12,164.34 -44.71,73.78 -127.57,142.53 -248.56,206.25 -74.32,37.73 -126.92,62.89 -157.83,76.3 -72.34,32.7 -124.29,57.02 -156.51,73.79 -392.58,204.58 -593.15,306.86 -601.05,306.86 -29.58,3.36 -102.58,-12.57 -219.64,-46.95 -5.91,-1.67 -19.07,-2.51 -38.13,-2.51 -14.47,1.67 -26.31,0 -36.83,-4.2 -74.31,-31.85 -138.75,-95.58 -192.67,-191.99 -19.08,-36.05 -37.48,-97.26 -53.93,-184.45 -32.22,-160.15 -38.8,-331.19 -21.04,-513.12 3.94,-47.79 36.16,-152.6 96,-314.42 115.74,-312.73 258.44,-560.9 428.11,-744.52 -1.32,-51.98 41.43,-109.83 128.88,-171.88 20.39,-65.4 76.29,-153.43 167.69,-264.94 -1.32,6.71 -1.32,10.9 0.66,12.58 1.98,0.83 5.92,0.83 10.53,0 7.89,-1.68 13.15,-5.87 15.78,-12.58 1.31,-6.71 0,-14.26 -3.95,-22.65 -2.63,-7.54 -3.28,-14.25 -1.97,-19.28 25.64,13.41 51.95,-12.58 78.91,-76.31zm1019.94 798.19c9.87,23.48 19.74,38.56 28.93,46.95 -22.37,3.35 -42.74,-26.83 -61.82,-90.55 12.5,7.55 23.68,22.64 32.88,43.6zm3.29 46.95c10.52,13.41 10.52,25.98 0,39.4 -11.19,-20.13 -17.1,-32.69 -17.1,-39.4l17.1 0zm587.9 1201.47c21.71,5.03 43.4,-1.68 65.76,-20.13 21.71,-17.61 25.65,-34.37 11.19,-48.62 -6.59,9.22 -19.08,20.96 -38.14,34.37 -19.74,12.58 -32.22,24.32 -38.8,34.37zm-955.49 -66.24c2.63,2.52 3.94,0.84 3.94,-5.03 0,-5.03 -0.65,-12.58 -1.97,-22.64 0,-3.36 0.66,-8.39 1.97,-16.77l17.1 -103.13c-1.31,9.22 -9.86,9.22 -24.99,0 6.58,9.22 7.89,24.32 3.95,43.6 -5.26,23.48 -6.58,46.11 -3.95,69.59 -2.63,19.29 -1.31,31.02 3.95,34.37zm528.06 -115.7c19.07,27.66 84.83,11.74 195.96,-46.96 176.24,-89.7 334.05,-202.06 474.13,-336.2 15.79,-13.42 65.76,-71.27 150.59,-174.4 62.48,-75.46 115.74,-125.77 159.8,-150.08 74.31,-41.08 121.66,-40.24 142.69,2.52 15.13,36.05 6.59,91.39 -24.98,166.85 -41.43,98.09 -188.08,273.33 -439.28,525.7 -191.36,195.35 -314.33,311.89 -368.25,351.3 -28.28,20.12 -71.03,57.01 -128.89,110.67 -78.25,72.11 -122.98,112.35 -132.83,120.74 -110.49,86.35 -209.78,119.9 -297.24,100.61 -48.66,-11.74 -101.27,-41.08 -157.82,-88.87 -69.05,-62.05 -116.4,-101.45 -140.73,-117.38 -25.64,-33.54 -38.14,-87.2 -38.14,-162.66l1.98 -188.64c-2.64,-11.74 -7.24,-27.67 -13.81,-46.95 -6.58,-20.97 -9.87,-36.05 -9.87,-44.44 -1.98,-57.01 28.93,-171.88 94.69,-343.75 43.4,-116.55 92.06,-207.93 144.67,-275.01 0,-10.07 -2.63,-18.45 -7.89,-26.83 -3.95,-8.38 -5.27,-17.61 -3.95,-26.82l1.98 -2.52 1.97 0 1.97 -2.51 1.97 -2.52 1.98 0 3.94 -2.52 57.88 -51.98c-7.9,-31.02 -5.27,-62.04 7.23,-93.06l34.85 -83.84c20.39,6.71 30.24,12.58 28.93,17.61 -5.26,1.68 -8.55,-0.84 -10.52,-5.87 -1.98,-5.87 -2.64,-15.1 -1.32,-25.99 1.32,-11.74 5.92,-12.58 13.81,-2.51 9.21,11.74 16.45,11.74 23.02,2.51 5.26,-6.71 7.24,-23.48 5.92,-49.46 -1.31,-25.99 0.66,-42.76 5.92,-48.63 8.55,0 16.44,2.51 23.02,9.22 9.87,8.39 18.42,12.58 24.99,12.58 -7.89,15.93 -23.02,41.92 -46.03,76.3l-48.65 71.27c-34.2,62.05 -51.3,129.95 -49.99,203.74 1.32,6.71 1.32,10.9 -0.65,12.58 -1.97,1.68 -4.6,0.84 -7.24,-2.52 -11.18,-8.38 -18.41,-11.74 -21.04,-10.06 -47.35,149.24 -99.3,291.77 -155.86,427.6 2.63,4.2 9.21,10.07 19.08,16.78 7.89,6.7 13.81,14.25 17.76,22.64 -21.05,4.19 -28.94,32.69 -25.64,83 53.92,-129.11 129.54,-283.39 225.55,-461.98 121.01,-223.86 199.92,-373.1 237.4,-446.88 -1.32,-5.03 -19.73,-23.48 -53.93,-56.17 -23.68,-21.81 -31.56,-46.12 -25.63,-73.79 10.51,3.36 25.63,13.42 44.71,31.86 20.39,19.29 37.48,31.85 51.95,36.89 15.13,-8.39 28.27,-24.32 38.8,-49.47 12.49,-31.02 23.67,-50.31 32.22,-58.69 -1.32,-6.71 -5.27,-15.94 -13.16,-26.83 -6.58,-13.42 -9.86,-24.32 -9.86,-31.85 7.89,-3.36 15.78,-0.84 23.02,6.7 7.89,6.71 16.44,9.23 24.99,7.55 1.31,-63.72 5.26,-109.83 11.84,-137.5 32.22,-39.4 69.71,-72.94 113.76,-100.61 0,1.68 3.95,-5.87 11.19,-23.48 7.89,-16.77 24.33,-51.98 48.66,-105.64 24.33,-52.82 48.66,-104.81 73,-155.95 53.92,-117.38 122.97,-170.2 207.8,-156.79 49.32,8.39 106.53,41.08 173.61,98.1 69.71,60.37 113.77,117.38 132.83,169.36 36.16,99.78 22.36,199.55 -40.11,299.32 -56.55,90.55 -127.58,142.53 -212.41,157.63 -38.14,25.98 -81.54,81.32 -128.88,164.33 -47.35,85.52 -90.09,140.02 -126.92,165.17 -44.06,45.28 -100.62,176.08 -169.67,389.87 -1.32,8.39 -29.59,64.56 -84.83,167.69 -49.97,96.42 -82.19,166.85 -96,211.28 -7.9,29.35 -7.9,48.63 0,58.7zm1523.66 -2935.35c17.76,-27.66 21.7,-65.4 11.83,-113.19 -10.51,-46.95 -24.33,-71.27 -40.76,-71.27 11.83,13.42 18.41,41.08 21.04,83.84 1.32,48.63 3.95,82.16 7.9,100.61zm-161.78 -412.51c38.14,58.69 86.81,81.33 144.67,68.76 2.64,15.93 9.87,28.5 23.03,36.89 2.63,1.67 7.89,4.19 17.1,6.7 3.94,1.68 10.52,5.04 19.07,10.07 14.47,32.69 12.5,47.79 -5.26,44.43 26.96,32.7 36.16,55.34 28.93,68.76 0,6.71 3.95,15.93 13.15,29.34 10.53,18.45 15.79,31.02 17.1,39.4 -13.81,63.73 -15.78,102.29 -5.26,115.71 -15.78,0 -29.58,6.71 -42.74,21.8 7.89,13.42 9.86,33.54 5.92,61.21l0 31.86c-26.96,10.06 -54.58,6.7 -82.85,-9.23 -43.41,155.11 -135.47,249.85 -275.54,282.55 -29.59,-23.48 -57.88,-32.7 -84.83,-30.18 -5.26,18.45 -23.68,-4.2 -55.9,-68.76 -6.58,-14.25 -13.15,-30.18 -21.04,-46.11 -2.64,3.35 -4.6,-5.87 -5.92,-27.66 -1.32,-15.94 -1.98,-44.44 -1.98,-85.52 3.95,-16.77 7.24,-28.5 9.87,-36.89 2.63,-10.06 5.92,-22.64 9.86,-39.4l0 -2.52c0,0 -0.65,-1.67 -1.31,-5.87 -0.66,-4.19 -1.31,-8.38 -1.97,-13.42 -0.66,-5.03 -1.32,-11.74 -2.64,-20.12 -1.31,-7.55 -2.62,-16.77 -3.94,-25.16 -1.32,-9.22 -3.29,-20.13 -4.61,-32.69 -1.96,-11.74 -3.94,-24.32 -5.26,-37.73 14.47,-15.93 28.27,-51.98 42.74,-108.16 20.4,-10.06 49.98,-41.92 88.12,-95.58 38.8,-52.82 73.65,-84.68 104.56,-95.58 5.92,-5.03 17.1,0 32.22,14.26 15.79,16.77 26.95,22.64 32.88,17.61 -1.32,-8.39 -0.66,-20.97 1.97,-36.89 0,-5.03 0.65,-10.06 1.31,-15.1 0.66,-5.03 1.32,-8.38 1.98,-10.9 0.66,-2.51 0.66,-4.19 0.66,-5.87l5.91 0zm-487.93 2423.91c1.32,15.09 0.66,36.05 -3.29,64.56 -3.94,29.34 -5.26,51.14 -3.94,66.24 -1.32,-1.68 -5.92,-45.28 -13.82,-130.79l21.05 0zm-40.11 150.07c-7.9,13.42 -13.16,21.81 -16.45,26.83 -3.28,5.03 -4.6,6.71 -4.6,5.03 -5.26,0 -7.89,-5.87 -7.89,-16.77 1.31,-11.74 1.97,-20.97 1.97,-27.66 2.63,-1.68 6.58,-4.2 11.84,-6.71 4.61,-1.68 7.23,-5.03 7.23,-10.07 14.47,8.39 17.11,17.61 7.9,29.34zm731.91 306.87c-20.39,39.4 -35.5,68.75 -46.03,88.87 83.51,-126.61 128.88,-202.06 136.78,-226.38 -5.26,11.74 -10.52,15.93 -15.13,12.58l-19.73 -12.58 0 54.5c-1.32,0 -3.29,-1.68 -5.92,-5.03 -1.97,-3.36 -4.61,-5.03 -7.23,-5.03 -9.21,29.34 -23.02,60.36 -42.75,93.06zm847.65 -88.03c30.9,-29.34 46.69,-60.37 46.69,-91.39 -7.9,15.1 -31.57,41.92 -71.69,81.32 -32.21,31.02 -51.29,55.34 -57.87,73.79l82.86 -63.72zm-1757.11 -22.64c6.57,-39.41 22.36,-81.33 46.68,-127.45 28.27,-55.34 51.3,-67.92 69.05,-36.89 5.27,8.39 -5.92,31.02 -32.87,68.76 -30.25,39.4 -49.33,71.27 -55.9,95.58 -16.45,68.75 -11.84,136.66 13.81,202.06 20.39,53.66 52.61,96.41 96.01,127.44 80.22,58.69 165.72,63.73 258.44,15.1 91.4,-47.79 150.59,-124.93 177.55,-231.4 4.61,-6.71 9.87,-6.71 15.13,0 7.89,6.7 15.78,9.22 24.99,7.54 157.83,-232.24 255.82,-362.2 292.64,-388.19 37.48,-29.34 73.65,-41.92 108.5,-36.88 11.18,1.67 24.33,10.9 38.14,26.82 11.84,15.1 23.68,24.32 36.83,27.66 -6.58,62.05 -20.4,110.68 -40.78,146.73 30.91,-5.87 48.01,-48.63 51.95,-127.45 3.95,-78.81 -13.15,-125.77 -51.95,-142.53 -114.42,-10.06 -235.41,64.56 -363.65,223.87 -172.3,211.28 -268.96,324.47 -289.34,341.23 -39.46,25.99 -90.09,33.54 -149.94,21.81 -67.08,-10.91 -105.87,-44.44 -115.73,-100.61 -11.85,-67.08 13.15,-127.45 74.97,-181.94 90.08,-77.97 135.46,-119.06 136.78,-122.41 -20.4,-41.08 -32.23,-74.63 -34.86,-100.62 -5.92,-39.4 5.27,-68.75 34.86,-88.87 2.62,23.48 11.17,42.76 24.99,59.53l34.85 43.6 119.68 -98.09c42.09,-42.76 68.39,-93.07 78.91,-151.76 8.55,-1.68 16.45,0 23.02,6.71 6.58,8.38 13.81,11.74 23.02,10.06 17.76,-10.06 34.19,-28.5 48.01,-56.17l17.09 -36.89c6.58,-16.77 12.51,-29.34 17.77,-36.89 29.58,-11.74 45.37,-26.82 48,-44.44 24.34,-25.98 64.45,-52.82 119.69,-81.32 53.92,-29.34 95.35,-54.5 124.95,-75.46 18.41,-13.42 48,-43.6 90.75,-91.39l88.77 -103.13c74.31,-75.46 147.96,-103.12 221.61,-83.84 48.67,13.42 81.54,50.31 97.98,110.68 13.16,42.76 17.76,109 15.13,199.54 -7.23,253.21 -6.58,396.58 1.98,429.28 46.69,-10.9 90.74,-38.56 133.48,-80.48 4.61,-5.03 23.02,-24.32 53.93,-57.02 17.76,-20.96 34.85,-39.4 51.95,-53.66 25.64,-25.15 62.47,-57.01 111.8,-96.41 55.89,-46.95 96,-81.33 119.02,-103.13 128.88,-124.09 242.65,-208.77 343.27,-252.37 160.45,-72.11 283.42,-51.98 369.58,61.21 48.65,62.05 81.53,163.5 98.63,304.35 4.6,36.05 11.84,100.61 21.05,194.51 8.55,91.39 17.1,159.31 25,203.74 9.2,46.11 17.75,85.52 26.95,119.9 3.95,15.09 7.89,31.02 11.84,49.47 3.29,17.61 6.58,31.85 9.21,40.24 2.63,9.22 4.6,16.77 5.92,23.48 6.58,44.44 11.84,89.71 15.13,134.98 6.57,62.89 10.52,101.45 11.83,118.23 19.08,132.46 55.9,240.62 109.83,324.47 67.07,104.81 149.93,149.24 250.54,134.98 65.1,-10.06 217.67,-93.9 456.38,-250.68 34.84,-24.32 70.37,-51.15 105.87,-78.81 38.8,-27.67 76.29,-51.99 111.79,-73.79 88.78,-51.98 170.33,-71.27 244.63,-56.17 19.73,103.12 -11.18,186.96 -92.07,250.68 -142.69,115.71 -209.77,168.53 -200.56,156.79 -9.21,-12.58 -13.16,-17.61 -11.84,-14.25 -5.92,-3.36 -11.18,-1.68 -15.13,5.03 -17.75,12.58 -183.47,166.01 -497.14,458.62 -129.55,123.25 -259.1,210.44 -389.3,263.27 -188.73,78.8 -326.83,51.98 -414.29,-78.81 -55.24,-88.03 -104.55,-244.82 -147.96,-468.69 -87.45,-451.07 -134.8,-803.21 -142.7,-1058.93 -1.31,-8.38 -1.31,-14.25 0,-18.45 1.32,-4.19 4.61,-5.03 9.87,-4.19 5.26,1.68 7.24,0 7.24,-6.71 -1.32,-5.03 -2.64,-10.06 -3.29,-15.09 -18.42,-5.04 -38.14,1.67 -59.85,20.12 -1.31,1.68 -3.28,3.36 -5.91,5.87 -2.64,2.52 -5.92,5.87 -9.87,10.07 -3.94,4.19 -6.58,7.54 -9.21,10.9 -5.26,6.71 -13.81,14.25 -24.99,24.32 -15.79,11.74 -273.57,245.65 -774.66,702.6 -186.09,166.85 -326.83,311.06 -422.18,432.63 -110.48,139.18 -187.42,227.22 -230.82,264.95 -99.29,82.16 -208.46,115.7 -327.49,100.61 -82.19,-11.74 -136.77,-43.6 -163.74,-95.58 -29.59,-62.05 -28.27,-127.45 3.29,-196.19 41.42,-88.87 63.13,-150.92 65.76,-186.97 14.47,-13.42 57.22,-85.51 128.88,-216.32 21.06,-36.04 83.51,-119.89 188.74,-250.68 80.22,-99.78 130.2,-197.87 150.59,-294.29 33.53,-44.44 83.51,-125.77 149.93,-243.14 -44.72,17.61 -96.67,58.69 -155.85,122.41 -78.25,85.52 -128.23,136.66 -149.94,155.11l-3.94 39.41c-2.64,22.64 -5.92,37.72 -9.87,46.11 -16.45,5.03 -38.8,23.48 -67.08,57.01 -23.68,31.02 -48.66,46.11 -75.63,46.11 -29.58,83.84 -84.17,135.83 -163.75,157.63 -80.87,24.32 -155.18,12.58 -223.58,-34.37 -13.81,0 -19.74,-9.23 -17.1,-26.83 1.32,-21.8 -2.64,-36.05 -11.84,-41.92 1.31,0 0,0 -5.26,0 -5.26,0 -10.53,-0.84 -16.45,-1.67 -5.92,-0.84 -12.49,-0.84 -20.39,-0.84 -20.38,-3.36 -33.53,-11.74 -38.79,-25.16 13.15,-10.9 13.81,-35.21 1.97,-71.27 -17.76,-51.98 -27.62,-83 -28.92,-93.06l0 -113.19z"/>
    <path class="fil1" d="M12358.19 11236.2c-6.58,8.39 -13.81,7.55 -21.04,-1.67 -9.21,-10.07 -13.81,-20.97 -13.81,-32.7 7.89,-7.55 17.09,-10.06 28.92,-6.71 7.9,27.67 9.87,41.08 5.92,41.08zm1413.84 -429.28c-3.95,-13.41 -3.29,-20.96 1.97,-22.64l15.13 -11.74c-40.76,3.36 -119.68,51.99 -236.73,147.56 25.64,-13.41 51.95,-26.82 78.91,-41.08 26.95,-13.41 48.66,-24.32 63.79,-31.85 15.13,-7.55 29.59,-14.26 42.08,-21.81 13.15,-7.54 22.36,-11.74 26.96,-13.41l7.89 -5.04zm-1413.84 -132.46c0,-10.07 3.95,-19.29 11.19,-27.67 7.89,-7.54 13.15,-15.93 15.78,-24.32 -15.78,-8.38 -26.96,-3.35 -34.85,15.1 -9.21,15.93 -6.58,28.5 7.89,36.89zm5.92 -776.39c-2.63,17.61 3.95,27.66 21.05,29.34 16.44,1.68 29.59,-1.68 38.14,-10.06 -4.61,0 -25,-6.71 -59.19,-19.29zm-316.31 188.64c1.32,1.68 1.98,4.2 1.98,7.55 1.31,5.03 2.62,7.55 3.94,7.55l-11.84 0 0 -10.07 0 -11.74c0,-6.7 -3.94,-8.38 -11.18,-5.03 -2.63,3.36 -4.6,10.9 -5.92,24.32 -2.63,15.1 -7.89,20.13 -15.78,17.61 -5.92,-31.85 -11.85,-47.79 -17.11,-49.46 -2.63,13.41 -4.6,19.28 -5.91,19.28 -1.32,-22.64 -4.61,-34.37 -9.21,-34.37 20.38,10.06 48,10.06 82.85,0 40.77,-12.58 64.45,-36.89 71.03,-71.27 -1.32,23.48 2.63,35.21 11.83,36.89 28.28,-40.24 81.55,-64.56 159.8,-71.27 -2.62,-27.67 1.32,-43.6 11.19,-48.63 0,12.58 5.26,16.77 15.78,11.74 11.18,-4.19 17.11,-10.9 17.11,-19.29 -130.86,-27.66 -272.92,-9.22 -425.48,56.18 0,13.42 5.92,39.4 19.08,78.81 9.21,29.34 8.55,52.82 -1.98,68.75l-36.82 -119.9c-1.32,-1.68 -1.98,-3.35 -1.98,-5.03 -9.86,-3.35 -20.38,-0.84 -30.24,7.55 -13.15,7.54 -21.71,11.74 -24.99,11.74 0.65,36.05 0.65,55.33 0,57.01 -6.59,-39.4 -16.44,-51.14 -28.94,-34.37 4.61,36.89 -1.96,62.88 -21.7,75.46 -11.18,3.36 -23.68,2.52 -36.16,-2.51 -21.05,-2.52 -32.22,-4.2 -34.85,-4.2 -47.35,36.05 -101.27,89.71 -161.77,161.82 -79.57,96.42 -123.64,162.66 -130.86,198.71 -2.64,11.74 -3.3,23.48 -1.98,34.37 1.32,13.42 1.98,25.99 1.98,36.89 -10.53,116.54 -54.59,184.45 -132.84,203.74 -26.29,68.75 -31.56,134.98 -17.75,197.03 -1.32,7.54 -7.24,15.09 -17.1,21.8 -7.9,6.71 -13.16,15.93 -15.79,26.83 -5.26,59.53 11.18,103.96 48.66,134.98 63.79,52.82 96.01,77.97 96.01,76.3 17.76,5.03 46.03,21.8 84.83,49.47 37.48,27.66 65.76,42.76 84.83,44.43 44.71,4.2 65.1,4.2 61.81,0 36.83,-20.12 83.52,-46.95 138.75,-81.32 75.63,-44.44 121.66,-71.27 138.09,-81.32 5.27,-41.08 32.88,-79.65 82.86,-117.39 50.64,-37.72 78.25,-76.3 82.85,-115.7 51.96,-49.47 82.2,-75.47 92.72,-78.81 3.95,-78.81 34.86,-150.92 92.72,-218.83 88.12,-98.1 135.46,-151.76 140.73,-161.82 19.07,-36.05 35.5,-83.84 49.97,-145.05 16.45,-75.46 31.57,-129.95 44.06,-164.33l-32.87 0c-1.32,-10.07 -9.21,-24.32 -25,-44.44 -9.87,-15.93 -16.44,-31.85 -19.07,-46.11 -9.21,-1.68 -17.76,0.84 -26.96,9.22 -9.21,11.74 -16.44,17.61 -23.02,17.61 -19.73,-11.74 -48.66,-14.25 -88.77,-7.54 -52.61,6.71 -91.4,9.22 -115.74,7.54 0,27.67 -3.95,43.6 -11.19,48.63 0,-9.22 -4.6,-16.77 -13.81,-21.8 -9.86,-3.35 -16.44,-7.55 -19.07,-12.58 -10.53,39.4 -26.96,56.18 -49.98,49.47 2.63,0 -1.32,-5.03 -11.84,-15.1zm1886 -1063.12c-8.55,12.58 -35.5,47.79 -80.88,105.64 -32.22,39.4 -55.24,72.11 -69.05,98.1 96.01,-93.07 145.99,-160.98 149.93,-203.74zm-1604.55 2087.68c-14.47,-27.66 -24.99,-42.75 -32.88,-44.43 -24.34,-5.03 -61.16,22.64 -109.81,81.32 -53.93,63.73 -89.44,98.1 -105.88,103.13 2.63,37.73 -2.63,65.4 -15.79,83.84 -12.5,3.35 -19.73,0 -21.05,-10.06 -5.26,-8.39 -12.49,-11.74 -23.02,-10.07 5.27,-3.35 -24.33,41.08 -88.77,132.47 -47.35,68.75 -69.71,95.58 -67.07,78.81 -34.86,39.4 -121.66,88.87 -260.42,147.56 -157.82,68.75 -271.59,98.93 -340.63,90.55 -151.91,-14.26 -262.39,-118.22 -331.44,-311.9 -60.5,-168.53 -78.91,-362.2 -55.9,-581.87 12.5,-132.47 93.38,-368.07 242.66,-705.12 155.19,-348.78 359.7,-595.28 612.88,-739.5 59.84,-34.37 163.75,-72.11 309.73,-113.19 191.36,-53.66 301.84,-79.64 331.44,-77.97 199.25,17.61 332.09,100.61 399.16,248.18l71.02 159.3c40.12,58.69 93.38,76.3 159.8,51.98 69.71,-28.5 139.41,-89.71 209.78,-184.45 25,-29.34 55.24,-72.95 90.75,-129.95 20.38,-32.7 47.35,-73.79 80.87,-123.25 105.23,-149.24 291.32,-386.52 556.99,-711.83 163.09,-197.03 295.93,-376.46 398.51,-538.27 5.26,-6.71 9.87,-6.71 13.81,0 5.27,5.03 9.87,5.03 15.13,0 60.5,-108.16 156.51,-233.91 287.37,-378.13 187.41,-209.61 295.92,-333.69 325.52,-371.43 140.06,-178.59 259.75,-262.43 360.37,-252.37 137.43,14.26 262.38,110.68 375.48,289.26 -10.51,28.5 -15.78,58.69 -17.09,91.39 -28.28,24.31 -131.52,105.64 -310.4,243.14 -128.22,99.77 -228.19,185.29 -298.54,257.4 -56.56,61.2 -99.96,108.99 -130.86,145.04 -60.5,68.76 -104.56,117.39 -132.83,145.05l-111.79 95.58c-56.56,49.47 -93.38,83 -109.83,100.61 -36.16,34.37 -56.55,51.14 -61.82,49.47 -155.19,249.01 -458.35,647.26 -909.46,1193.92 -334.06,410.83 -597.75,848.49 -791.76,1311.3 -37.48,90.55 -58.52,149.24 -63.78,176.92 -13.81,68.75 0,120.73 42.74,155.11 19.08,-13.42 49.32,-19.29 90.08,-17.61 41.44,0 73.67,-5.87 96.68,-19.29 13.81,-6.71 30.24,-19.29 48,-36.89l40.77 -31.86c3.94,-3.35 42.74,-33.53 117.06,-91.38 56.55,-43.6 99.3,-74.63 127.57,-93.07 76.94,-50.3 124.3,-83 142.7,-98.09 4.61,-5.03 26.96,-28.5 65.11,-71.27 33.53,-37.73 60.5,-64.56 80.88,-81.33 72.34,-57.01 137.43,-65.4 196.62,-24.32 56.56,41.09 80.23,119.06 71.02,233.08 -7.23,104.81 -48.66,194.52 -122.97,268.3 -10.53,9.23 -86.8,68.76 -229.51,176.92 -21.7,14.25 -97.98,77.13 -228.85,188.64 -83.51,70.43 -153.22,119.9 -208.46,147.56 -46.03,62.05 -67.74,93.07 -65.11,93.07 -18.41,-7.55 -49.31,-2.52 -92.72,17.61 -40.76,17.61 -71.02,18.45 -90.74,2.51 -62.48,58.69 -143.36,75.47 -242.66,48.63 -90.74,-22.64 -159.79,-67.08 -205.82,-132.47 20.38,-24.32 20.38,-45.27 0,-61.2l-1.98 -2.52 -1.97 0 -1.97 -2.52 -1.98 0 -1.97 -2.51 -44.06 -29.34c-6.58,-8.39 -5.92,-13.42 1.98,-15.1 5.26,0 8.55,-0.84 11.17,-3.35 2.64,-2.52 3.3,-5.87 1.98,-10.9 -48.66,-214.64 -72.34,-325.32 -71.03,-332.03 7.89,6.71 14.47,7.55 21.06,2.52 9.2,-6.71 16.43,-9.22 23.02,-9.22 -30.91,253.2 34.84,426.76 196.62,520.66 68.39,38.57 141.37,51.98 219.64,38.57 78.25,-10.9 147.96,-49.47 207.8,-114.87 6.58,0 11.84,5.03 15.79,14.26 3.94,13.41 9.2,18.45 17.09,15.09 67.09,-46.11 183.47,-145.88 350.5,-300.16 137.44,-130.79 257.13,-225.54 358.4,-284.22 3.95,-8.38 3.29,-15.93 -1.97,-22.64 -4.61,-9.23 -5.93,-20.97 -3.95,-34.37 48,-19.29 77.59,-76.31 88.77,-169.37 -16.44,70.43 -58.53,131.63 -124.95,184.45 -25.64,19.29 -56.55,41.08 -92.72,63.72 -53.92,31.02 -86.8,51.99 -97.98,61.21 -36.16,26.83 -91.4,69.6 -165.71,130.79 -76.94,63.73 -135.47,110.68 -175.59,141.69 -143.35,106.49 -274.88,166.85 -392.59,179.42 -78.9,6.71 -145.33,-17.61 -200.56,-73.78 -53.92,-53.66 -84.83,-123.26 -92.72,-208.77l0 -203.74c-2.63,-79.65 -19.08,-139.18 -49.98,-176.91 -15.13,8.38 -23.68,29.34 -24.99,63.72 -3.95,44.43 -8.55,70.43 -13.16,76.3 -7.9,5.03 -18.41,2.52 -30.91,-6.71 -14.46,-10.06 -28.27,-11.74 -42.73,-5.03 1.31,-3.35 5.25,-6.71 11.83,-10.06 5.27,0 8.55,-1.68 11.19,-5.03 5.26,-1.68 10.52,0.84 15.78,7.54 12.5,-1.67 12.5,-15.93 0,-41.92zm-349.18 -982.64c0,-5.03 0,-11.74 -0.66,-21.8 -0.66,-10.06 -1.32,-16.77 -2.63,-20.13 1.31,-1.67 2.63,-0.84 3.29,2.52 1.31,6.71 3.28,17.61 5.92,31.86 5.26,25.15 3.94,36.88 -3.95,36.88 -1.31,-1.67 -1.97,-10.9 -1.97,-29.34zm3691.78 857.71c-1.32,10.91 -0.66,31.02 1.97,58.7 3.95,29.34 5.26,49.46 3.95,58.69 -5.26,-10.9 -13.16,-50.31 -23.02,-117.39l17.1 0zm-13.15 114.87c1.97,10.06 0.65,18.45 -3.95,25.16 -10.52,0 -15.13,-13.42 -13.82,-39.41 9.21,-3.35 15.13,1.68 17.77,14.26zm-1497.37 243.14c11.84,-3.35 18.42,-7.54 19.08,-14.25l-44.06 -7.55c1.31,1.68 1.31,10.06 0,24.32 0,10.06 2.63,15.09 7.89,15.09 1.32,-6.71 7.24,-12.58 17.1,-17.61zm770.71 -164.33c-10.52,36.05 -13.15,65.4 -9.86,88.87 7.89,-23.48 18.41,-26.83 30.9,-10.06 -12.5,-11.74 -13.82,-34.38 -3.95,-68.76 11.84,-44.43 15.79,-76.3 11.84,-95.58l-17.1 51.15c-5.26,15.09 -9.21,25.98 -11.84,34.37zm-265.67 -253.21c9.87,-7.54 15.78,-14.25 17.1,-19.28 -2.63,0 -5.92,-2.52 -9.87,-7.55 -0.66,-5.03 -3.28,-7.55 -7.23,-7.55 -7.9,34.37 -14.47,52.82 -19.73,54.5 1.32,-5.03 7.89,-11.74 19.73,-20.13zm564.22 -1350.71c15.79,-3.35 35.51,-2.52 59.84,2.52 24.34,5.03 40.78,4.19 49.99,-2.52 -17.77,-16.77 -36.83,-25.16 -57.88,-26.83 -25.64,-3.35 -42.74,5.87 -51.95,26.83zm-394.55 999.4c-23.68,25.16 -30.91,60.37 -23.68,105.65l-11.19 -19.29c-3.94,-8.39 -8.54,-12.58 -13.81,-12.58 -3.94,32.69 -15.79,64.56 -36.16,96.42 -19.73,31.02 -35.51,58.69 -48.67,83 9.21,10.06 11.85,21.8 7.89,34.37 0,1.68 -0.65,4.19 -2.62,7.55 -1.98,3.35 -3.95,6.71 -5.27,10.06l-7.23 19.29c35.51,-24.32 136.77,-116.55 302.5,-275.01 -3.95,-16.77 -17.76,-39.4 -40.77,-68.75 -20.39,-22.65 -29.59,-44.44 -26.96,-63.73 5.26,5.03 19.07,22.64 42.74,53.66 15.13,21.81 30.91,36.89 48.01,46.95 5.26,-11.74 13.15,-20.96 24.99,-29.34 2.63,-10.06 -1.31,-21.8 -11.84,-34.37 -9.87,-10.06 -11.84,-17.61 -5.26,-22.64l36.17 25.16c2.63,-6.71 -1.32,-19.29 -11.19,-36.89 -9.2,-15.1 -11.84,-26.83 -7.89,-34.37 5.27,-10.07 15.78,-15.94 32.88,-17.61 21.7,-3.36 34.85,-7.55 40.11,-11.75 19.73,-20.12 30.9,-46.95 34.85,-81.32 1.31,-16.77 0,-52.82 -3.95,-108.16 -70.37,-1.67 -133.49,0.84 -188.73,7.55 -21.71,51.98 -52.61,88.03 -92.71,108.16 -46.04,24.32 -88.78,16.77 -128.89,-22.64 -21.71,3.35 -41.43,17.61 -59.85,41.92 -25.64,37.72 -40.1,57.85 -44.06,61.2 -6.57,3.36 -13.15,1.68 -19.07,-5.03 -5.26,-4.19 -11.84,-5.03 -19.73,-1.68 -30.91,9.23 -54.58,38.57 -71.02,88.04 -23.02,62.04 -40.12,99.77 -49.98,113.19 -19.73,24.32 -55.24,49.46 -107.85,76.3 -46.69,25.99 -80.22,55.34 -102.58,88.03 -8.56,-3.35 -14.47,-3.35 -17.11,0 -10.52,39.41 -37.48,84.68 -80.87,134.99 -47.35,56.17 -75.64,99.77 -84.83,132.46 -1.32,5.03 -5.27,30.18 -11.19,76.3 -3.94,31.02 -12.49,55.34 -25.64,71.28 59.19,-6.71 130.86,-41.92 214.38,-105.65 80.88,-65.4 150.6,-103.12 209.78,-113.19 9.21,-94.74 49.32,-136.66 121,-124.93 3.95,-1.68 5.92,-21.8 5.92,-61.21 21.7,-13.41 49.32,-41.91 82.85,-86.35 30.9,-42.76 59.19,-68.75 84.83,-77.97 0,-10.06 -2.63,-19.29 -7.89,-27.66 -4.6,-6.71 -6.58,-15.94 -5.26,-29.34 5.91,10.06 20.38,12.58 42.08,7.54 1.31,-29.34 9.21,-51.14 23.02,-63.72 13.16,-11.74 25.64,-5.87 38.79,16.77 2.64,-10.06 1.98,-20.12 -1.96,-31.85 -2.64,-10.07 -1.98,-16.78 1.96,-21.81 3.96,0 10.53,7.55 21.06,21.81 9.2,13.41 14.47,16.77 15.78,10.06 3.29,-8.39 -1.31,-23.48 -15.78,-46.95 -11.19,-17.61 -11.85,-31.02 -1.98,-39.41 -1.31,10.07 4.6,27.67 17.76,51.99 12.5,20.96 17.1,40.24 13.16,56.17 -26.96,-3.35 -49.99,6.71 -69.05,29.34zm442.56 -1178.83c117.05,25.99 213.06,72.11 287.36,137.5 86.15,77.13 127.58,174.4 124.96,292.61 -3.96,106.48 -57.22,249.85 -159.8,429.28 -121.66,214.64 -211.75,356.33 -269.63,425.09 -2.63,8.38 -1.97,17.61 1.98,27.66 3.94,10.9 5.26,20.13 3.94,26.82 -34.84,89.71 -82.19,180.26 -142.69,269.98 -6.58,10.06 -17.11,23.48 -32.88,41.92 -15.13,17.61 -26.3,31.86 -32.87,41.92 -26.96,36.05 -40.77,68.76 -42.09,98.1 -7.89,103.12 21.04,127.44 86.8,73.78 43.4,-34.37 86.8,-84.68 128.89,-150.08 126.92,-192.83 240.01,-300.99 339.31,-324.47 -34.84,56.17 -86.79,119.9 -156.5,192 -79.57,83 -134.81,143.37 -165.72,179.42 -130.86,165.17 -228.85,255.72 -294.61,272.49 -5.26,-32.7 -15.13,-67.08 -30.9,-103.13 -8.55,55.34 -7.9,95.58 3.29,119.9 10.52,25.16 31.56,33.53 62.48,27.66 47.34,-10.06 99.29,-43.59 155.84,-100.61 36.17,-37.72 80.89,-94.74 134.81,-170.2 72.34,-101.45 115.08,-160.98 129.55,-178.59 66.41,-85.52 137.43,-144.21 211.74,-176.92 49.98,-18.44 88.12,-24.31 113.77,-17.61 43.4,10.07 58.53,48.63 44.06,115.71 1.31,-18.45 -60.5,75.46 -184.79,280.04 -47.34,79.65 -122.97,160.98 -225.56,243.14 -172.29,139.18 -268.96,214.64 -290.65,225.54 -7.9,5.04 -44.06,29.34 -107.85,73.79 -55.24,36.05 -94.69,59.53 -117.71,68.75 -92.72,39.41 -163.09,13.42 -211.76,-78.8 -30.9,-55.34 -43.4,-125.77 -36.82,-210.45 0,-3.35 7.23,-38.57 21.05,-105.64 9.21,-42.76 9.86,-80.49 1.97,-113.19 -25.63,-27.67 -51.29,-36.89 -76.93,-26.83 -19.07,5.87 -42.08,28.5 -67.74,66.24 -78.25,112.35 -123.63,172.72 -136.78,179.42 -8.55,5.87 -21.7,9.22 -38.14,9.22 -17.1,3.36 -28.26,5.87 -34.84,7.55 -39.46,18.45 -134.81,89.71 -284.74,216.32 -113.11,98.09 -215.04,140.85 -304.47,127.44 -110.48,-15.93 -163.09,-115.7 -158.48,-299.31 3.94,-93.91 29.59,-241.47 77.59,-444.37 1.97,-3.35 6.58,-5.03 13.15,-5.03 7.9,-3.35 11.84,-6.71 11.84,-10.06 39.45,-139.18 103.91,-279.2 192.68,-420.06 39.45,-63.72 122.32,-180.25 248.57,-348.78 25.64,-83.84 69.05,-166.85 130.86,-250.69 44.71,-57.02 73,-92.23 84.82,-105.64l86.81 -105.65c12.49,-15.93 29.58,-41.92 51.95,-76.3 23.02,-34.37 40.11,-57.85 51.95,-71.27 23.02,-22.64 59.84,-46.11 109.82,-71.27 59.84,-27.66 99.3,-47.79 117.05,-61.21 15.79,-3.35 46.03,-23.48 90.75,-61.2 49.98,-41.09 87.46,-70.44 111.8,-88.88 53.92,-34.37 129.54,-65.4 227.53,-93.06l145.99 0zm1319.81 -188.64c-19.08,-51.15 -21.06,-89.71 -5.93,-115.71 19.74,10.06 21.71,47.79 5.93,115.71zm-28.94 1.67c2.63,3.36 5.27,5.04 7.89,5.04 1.32,10.06 -0.65,17.61 -5.92,22.64 -7.89,5.03 -11.17,10.06 -11.17,16.77 -13.16,-3.35 -13.16,-18.45 0,-46.11 4.6,0 7.89,0.84 9.2,1.67zm528.06 1776.63c-90.09,14.26 -142.04,50.31 -155.85,108.16 42.08,-39.4 94.03,-75.46 155.85,-108.16zm-1464.48 -123.25c-2.62,3.35 -15.13,56.18 -38.14,157.63 -1.31,14.25 0,21.8 3.95,21.8 3.29,0 3.95,-7.55 1.98,-21.8 1.31,-5.04 4.6,-20.13 11.18,-46.12 6.57,-25.15 12.49,-47.79 17.1,-67.07 15.79,-52.83 24.34,-86.36 25.64,-100.62 -7.89,22.65 -15.13,22.65 -21.71,0l0 56.18zm1942.56 -1910.78c15.13,-11.74 25.64,-22.65 30.25,-31.86 -53.93,8.39 -74.98,28.5 -63.13,61.21 5.91,-11.74 17.1,-20.97 32.87,-29.34zm995.62 -901.31c-2.64,0 -4.61,-0.84 -5.92,-2.52 -1.32,-1.67 -2.64,-2.51 -3.29,-2.51l-42.74 68.75c-2.64,0 -5.27,1.68 -7.9,5.03 -2.63,3.36 -1.97,5.87 1.97,7.55 6.58,-10.06 19.74,-25.16 38.8,-44.43 19.08,-18.45 33.54,-32.7 42.09,-44.44 3.94,-1.68 -3.95,-6.71 -23.02,-15.09l0 27.66zm148.61 -348.79c66.43,-90.54 110.48,-161.81 130.86,-213.8 38.8,-98.09 30.9,-177.75 -23.02,-238.11 -33.53,55.34 -53.27,81.33 -59.84,77.97 16.44,-58.69 24.99,-93.9 24.99,-105.64 -6.57,0 -20.39,-2.52 -42.09,-6.71 -14.47,-5.03 -28.93,-5.87 -44.71,-2.52 -3.94,4.2 -6.58,11.74 -7.24,21.81 -1.31,8.38 -5.26,14.25 -11.83,17.61 -11.85,-11.74 -19.08,-19.29 -23.02,-23.48 -3.95,-4.2 -5.27,-7.55 -3.95,-9.23 -11.84,36.05 -34.85,58.69 -69.71,67.08 -7.24,0.84 -24.34,3.35 -49.98,6.71 -24.34,3.35 -41.43,6.71 -51.95,10.06 -9.87,3.36 -51.95,35.21 -124.95,95.58 -41.42,32.7 -157.82,144.21 -350.5,334.53 -14.47,42.76 -42.74,82.16 -84.83,119.9 -36.16,103.13 -147.3,231.4 -333.4,383.17 -24.33,29.34 -45.37,55.33 -61.81,77.97 -16.45,21.8 -32.88,42.75 -49.32,62.04 -15.78,20.13 -28.94,36.05 -38.14,47.79 -9.86,12.58 -18.42,23.48 -24.99,33.53 -7.24,10.07 -11.85,16.78 -13.81,19.29 -1.98,3.36 -1.98,5.03 -0.66,5.03 -32.22,32.7 -63.14,83 -92.72,150.08 -39.46,89.71 -65.11,144.21 -74.97,161.82 -28.28,46.11 -88.12,121.58 -179.53,226.38 -80.88,91.39 -139.4,170.21 -174.92,235.6l-3.95 0 -15.78 0c-16.45,34.37 -38.8,74.62 -67.08,120.73 -28.28,45.28 -48.66,82.17 -61.82,110.68 23.02,-33.54 74.97,-80.49 155.85,-142.53 74.97,-59.53 124.29,-109.84 148.62,-152.6 17.76,-10.06 43.4,-28.5 76.94,-56.17 36.16,-30.18 62.47,-46.95 78.9,-51.99 64.45,-113.19 217.67,-254.88 460.98,-425.08 30.25,-19.29 112.45,-87.2 246.6,-203.74 98.64,-86.36 182.16,-147.56 249.89,-181.94 0,-3.35 1.32,-10.9 3.94,-24.31 2.64,-13.42 3.3,-22.65 1.98,-29.35 19.07,-8.38 36.82,-25.15 51.95,-51.98 23.02,-36.05 35.5,-53.66 36.82,-53.66l1.97 0c1.32,0 6.58,-4.19 16.45,-10.9 9.21,-7.55 19.73,-15.09 29.59,-22.64 10.52,-6.71 24.99,-17.61 44.71,-30.18 34.2,-25.16 53.92,-57.85 57.87,-98.94 40.77,-40.24 88.12,-100.61 142.04,-178.59 49.98,-72.1 97.32,-133.3 140.72,-181.93 -6.57,-21.8 -8.54,-38.57 -5.92,-51.98 10.53,1.67 20.4,-4.2 28.93,-16.78 7.89,-11.74 17.11,-17.61 26.96,-17.61 -1.31,-31.01 4.6,-64.56 17.76,-100.61 13.82,-37.72 31.56,-56.17 51.96,-56.17 -45.38,153.43 -67.74,232.24 -67.74,235.59 -6.58,0 -11.84,-0.84 -16.44,-2.51 -4.62,-1.68 -7.24,-3.36 -9.22,-5.04 -1.97,-1.67 -2.63,-3.35 -1.31,-5.03 -30.91,95.58 -86.8,192.84 -167.69,292.61 0,6.71 1.97,14.26 5.91,21.81 5.27,6.7 7.24,15.09 5.93,25.15 -11.84,-3.35 -19.74,2.52 -25,16.78 -5.26,13.41 -7.23,22.64 -5.91,29.34 42.74,-46.96 109.15,-132.47 200.56,-254.89zm-2262.15 1620.68c24.34,-60.36 49.98,-80.48 75.63,-61.2 -10.52,22.64 -42.74,66.24 -96.67,129.95 -146.64,176.91 -242.65,321.12 -288.68,432.63 0,10.07 -2.63,12.58 -7.89,7.55 -6.58,-10.06 -13.16,-12.58 -19.08,-7.55 -195.3,316.09 -327.49,550.01 -397.19,702.6 14.47,22.65 13.82,50.31 -1.97,83.01 -20.4,41.08 -30.9,72.94 -30.9,96.41 103.9,-249.01 263.03,-517.31 476.1,-803.21 67.73,-93.9 159.8,-211.28 275.54,-353.82 120.34,-152.59 211.75,-270.81 273.56,-356.33 -20.38,-25.98 -31.56,-53.66 -32.87,-83.84 -2.63,-34.37 8.55,-60.37 32.87,-77.97 -1.31,15.94 16.45,40.25 53.93,72.95 102.59,-104.8 157.82,-188.64 165.72,-252.36 36.17,1.67 50.64,4.19 44.06,7.54 18.41,-23.48 32.21,-46.95 42.74,-71.27 16.44,-36.05 30.9,-60.37 42.08,-71.27 5.27,-6.71 13.16,-20.12 23.02,-39.4 14.48,-23.48 24.34,-37.73 30.9,-44.44 11.85,-11.74 37.49,-33.53 76.94,-66.24 48.01,-34.37 75.63,-56.17 82.85,-63.72 9.21,-6.71 40.12,-41.08 92.72,-103.13 65.77,-75.46 100.62,-125.77 105.88,-150.07 1.31,0 4.61,-1.68 10.52,-5.04 5.92,-3.35 10.53,-5.87 14.47,-7.54l23.02 -14.26c13.16,-16.77 57.88,-66.24 134.81,-150.08 59.19,-62.04 98.64,-119.9 117.71,-171.88 19.08,3.35 30.25,3.35 32.88,0 53.93,-85.52 84.17,-140.01 90.75,-164.33 4.6,1.67 13.15,0.83 24.99,-2.52 5.92,-5.03 13.82,-5.87 23.02,-2.52 184.78,-212.96 320.91,-374.78 408.37,-486.29 114.43,-145.88 190.71,-236.43 229.51,-270.82 105.22,-94.74 215.04,-134.98 329.47,-119.89 102.58,14.25 186.09,62.88 249.88,145.04 71.02,93.07 83.51,197.87 38.8,314.42 -43.41,113.19 -132.84,267.46 -267.65,463.65 -195.31,280.04 -424.16,543.3 -685.88,788.96 -295.26,271.66 -524.11,465.33 -685.88,579.36 -9.21,5.03 -91.41,66.24 -246.61,184.45 -117.05,85.52 -201.22,144.21 -252.52,176.92 -671.41,400.76 -1048.87,809.08 -1131.07,1223.26 -23.02,113.19 4.6,238.95 82.86,378.14 73.65,130.79 152.56,215.48 237.39,253.2 111.79,-20.12 332.75,-154.27 664.17,-403.28 150.6,-114.03 261.73,-130.79 333.4,-48.63 30.91,37.73 48,84.68 49.98,142.53 3.95,62.05 -9.21,116.55 -40.11,164.34 -44.72,73.78 -127.58,142.53 -248.57,206.25 -74.32,37.73 -126.92,62.89 -157.83,76.3 -72.34,32.7 -124.29,57.02 -156.51,73.79 -392.58,204.58 -593.15,306.86 -601.05,306.86 -29.58,3.36 -102.58,-12.57 -219.64,-46.95 -5.91,-1.67 -19.07,-2.51 -38.13,-2.51 -14.47,1.67 -26.31,0 -36.83,-4.2 -74.31,-31.85 -138.75,-95.58 -192.67,-191.99 -19.07,-36.05 -37.48,-97.26 -53.93,-184.45 -32.22,-160.15 -38.8,-331.19 -21.04,-513.12 3.94,-47.79 36.16,-152.6 96,-314.42 115.74,-312.73 258.44,-560.9 428.11,-744.52 -1.32,-51.98 41.43,-109.83 128.88,-171.88 20.39,-65.4 76.29,-153.43 167.69,-264.94 -1.32,6.71 -1.32,10.9 0.66,12.58 1.98,0.83 5.92,0.83 10.53,0 7.89,-1.68 13.15,-5.87 15.78,-12.58 1.32,-6.71 0,-14.26 -3.95,-22.65 -2.62,-7.54 -3.28,-14.25 -1.97,-19.28 25.64,13.41 51.95,-12.58 78.91,-76.31z"/>
    <path class="fil1" d="M19053.25 10986.34c-1.32,10.91 -0.66,31.02 1.96,58.7 3.95,29.34 5.27,49.46 3.95,58.69 -5.26,-10.9 -13.15,-50.31 -23.02,-117.39l17.11 0zm-13.16 114.87c1.97,10.06 0.65,18.45 -3.95,25.16 -10.52,0 -15.12,-13.42 -13.81,-39.41 9.2,-3.35 15.13,1.68 17.76,14.26zm-1497.36 243.14c11.83,-3.35 18.41,-7.54 19.07,-14.25l-44.06 -7.55c1.32,1.68 1.32,10.06 0,24.32 0,10.06 2.64,15.09 7.89,15.09 1.32,-6.71 7.24,-12.58 17.11,-17.61zm770.71 -164.33c-10.53,36.05 -13.16,65.4 -9.87,88.87 7.89,-23.48 18.42,-26.83 30.9,-10.06 -12.49,-11.74 -13.81,-34.38 -3.95,-68.76 11.85,-44.43 15.79,-76.3 11.85,-95.58l-17.11 51.15c-5.25,15.09 -9.21,25.98 -11.83,34.37zm-265.68 -253.21c9.87,-7.54 15.78,-14.25 17.1,-19.28 -2.62,0 -5.92,-2.52 -9.86,-7.55 -0.66,-5.03 -3.29,-7.55 -7.24,-7.55 -7.89,34.37 -14.47,52.82 -19.73,54.5 1.32,-5.03 7.89,-11.74 19.73,-20.13zm564.22 -1350.71c15.79,-3.35 35.52,-2.52 59.85,2.52 24.33,5.03 40.77,4.19 49.98,-2.52 -17.77,-16.77 -36.83,-25.16 -57.87,-26.83 -25.65,-3.35 -42.75,5.87 -51.96,26.83zm-394.55 999.4c-23.68,25.16 -30.91,60.37 -23.68,105.65l-11.18 -19.29c-3.95,-8.39 -8.55,-12.58 -13.81,-12.58 -3.95,32.69 -15.79,64.56 -36.17,96.42 -19.73,31.02 -35.51,58.69 -48.66,83 9.21,10.06 11.84,21.8 7.89,34.37 0,1.68 -0.65,4.19 -2.63,7.55 -1.98,3.35 -3.94,6.71 -5.26,10.06l-7.23 19.29c35.5,-24.32 136.77,-116.55 302.49,-275.01 -3.95,-16.77 -17.76,-39.4 -40.77,-68.75 -20.39,-22.65 -29.59,-44.44 -26.96,-63.73 5.26,5.03 19.07,22.64 42.74,53.66 15.13,21.81 30.91,36.89 48.01,46.95 5.26,-11.74 13.15,-20.96 25,-29.34 2.62,-10.06 -1.32,-21.8 -11.85,-34.37 -9.86,-10.06 -11.83,-17.61 -5.26,-22.64l36.17 25.16c2.63,-6.71 -1.32,-19.29 -11.18,-36.89 -9.21,-15.1 -11.85,-26.83 -7.89,-34.37 5.26,-10.07 15.78,-15.94 32.87,-17.61 21.71,-3.36 34.85,-7.55 40.11,-11.75 19.73,-20.12 30.9,-46.95 34.85,-81.32 1.31,-16.77 0,-52.82 -3.95,-108.16 -70.37,-1.67 -133.48,0.84 -188.72,7.55 -21.71,51.98 -52.61,88.03 -92.72,108.16 -46.04,24.32 -88.77,16.77 -128.89,-22.64 -21.7,3.35 -41.43,17.61 -59.84,41.92 -25.65,37.72 -40.11,57.85 -44.06,61.2 -6.58,3.36 -13.16,1.68 -19.08,-5.03 -5.25,-4.19 -11.83,-5.03 -19.72,-1.68 -30.91,9.23 -54.59,38.57 -71.03,88.04 -23.02,62.04 -40.12,99.77 -49.98,113.19 -19.73,24.32 -55.24,49.46 -107.84,76.3 -46.69,25.99 -80.23,55.34 -102.59,88.03 -8.56,-3.35 -14.47,-3.35 -17.11,0 -10.51,39.41 -37.48,84.68 -80.87,134.99 -47.35,56.17 -75.63,99.77 -84.83,132.46 -1.32,5.03 -5.26,30.18 -11.18,76.3 -3.95,31.02 -12.5,55.34 -25.64,71.28 59.18,-6.71 130.86,-41.92 214.38,-105.65 80.87,-65.4 150.59,-103.12 209.77,-113.19 9.21,-94.74 49.32,-136.66 121,-124.93 3.95,-1.68 5.93,-21.8 5.93,-61.21 21.7,-13.41 49.31,-41.91 82.85,-86.35 30.9,-42.76 59.18,-68.75 84.83,-77.97 0,-10.06 -2.64,-19.29 -7.89,-27.66 -4.61,-6.71 -6.58,-15.94 -5.27,-29.34 5.92,10.06 20.39,12.58 42.09,7.54 1.31,-29.34 9.21,-51.14 23.02,-63.72 13.15,-11.74 25.63,-5.87 38.79,16.77 2.63,-10.06 1.97,-20.12 -1.97,-31.85 -2.64,-10.07 -1.98,-16.78 1.97,-21.81 3.95,0 10.52,7.55 21.05,21.81 9.21,13.41 14.47,16.77 15.79,10.06 3.28,-8.39 -1.32,-23.48 -15.79,-46.95 -11.19,-17.61 -11.84,-31.02 -1.98,-39.41 -1.31,10.07 4.61,27.67 17.77,51.99 12.49,20.96 17.1,40.24 13.15,56.17 -26.95,-3.35 -49.98,6.71 -69.05,29.34zm442.56 -1178.83c117.06,25.99 213.06,72.11 287.37,137.5 86.14,77.13 127.58,174.4 124.95,292.61 -3.95,106.48 -57.21,249.85 -159.8,429.28 -121.66,214.64 -211.75,356.33 -269.62,425.09 -2.63,8.38 -1.97,17.61 1.97,27.66 3.95,10.9 5.26,20.13 3.95,26.82 -34.85,89.71 -82.2,180.26 -142.7,269.98 -6.58,10.06 -17.1,23.48 -32.87,41.92 -15.13,17.61 -26.31,31.86 -32.88,41.92 -26.96,36.05 -40.77,68.76 -42.09,98.1 -7.89,103.12 21.05,127.44 86.8,73.78 43.4,-34.37 86.81,-84.68 128.89,-150.08 126.92,-192.83 240.02,-300.99 339.32,-324.47 -34.85,56.17 -86.8,119.9 -156.51,192 -79.56,83 -134.81,143.37 -165.72,179.42 -130.86,165.17 -228.85,255.72 -294.6,272.49 -5.27,-32.7 -15.13,-67.08 -30.9,-103.13 -8.56,55.34 -7.9,95.58 3.28,119.9 10.53,25.16 31.56,33.53 62.48,27.66 47.34,-10.06 99.29,-43.59 155.85,-100.61 36.17,-37.72 80.88,-94.74 134.8,-170.2 72.34,-101.45 115.09,-160.98 129.55,-178.59 66.41,-85.52 137.43,-144.21 211.74,-176.92 49.99,-18.44 88.12,-24.31 113.77,-17.61 43.4,10.07 58.53,48.63 44.06,115.71 1.31,-18.45 -60.5,75.46 -184.78,280.04 -47.35,79.65 -122.98,160.98 -225.57,243.14 -172.29,139.18 -268.95,214.64 -290.65,225.54 -7.9,5.04 -44.06,29.34 -107.85,73.79 -55.24,36.05 -94.69,59.53 -117.71,68.75 -92.72,39.41 -163.09,13.42 -211.75,-78.8 -30.9,-55.34 -43.4,-125.77 -36.82,-210.45 0,-3.35 7.23,-38.57 21.05,-105.64 9.21,-42.76 9.86,-80.49 1.97,-113.19 -25.64,-27.67 -51.3,-36.89 -76.93,-26.83 -19.08,5.87 -42.09,28.5 -67.74,66.24 -78.25,112.35 -123.64,172.72 -136.78,179.42 -8.55,5.87 -21.71,9.22 -38.14,9.22 -17.1,3.36 -28.27,5.87 -34.85,7.55 -39.46,18.45 -134.8,89.71 -284.74,216.32 -113.11,98.09 -215.03,140.85 -304.47,127.44 -110.47,-15.93 -163.08,-115.7 -158.48,-299.31 3.95,-93.91 29.59,-241.47 77.59,-444.37 1.98,-3.35 6.58,-5.03 13.15,-5.03 7.9,-3.35 11.85,-6.71 11.85,-10.06 39.45,-139.18 103.9,-279.2 192.67,-420.06 39.45,-63.72 122.32,-180.25 248.58,-348.78 25.63,-83.84 69.05,-166.85 130.86,-250.69 44.71,-57.02 72.99,-92.23 84.82,-105.64l86.8 -105.65c12.5,-15.93 29.58,-41.92 51.95,-76.3 23.02,-34.37 40.11,-57.85 51.95,-71.27 23.02,-22.64 59.85,-46.11 109.82,-71.27 59.84,-27.66 99.3,-47.79 117.06,-61.21 15.79,-3.35 46.03,-23.48 90.75,-61.2 49.97,-41.09 87.45,-70.44 111.79,-88.88 53.92,-34.37 129.54,-65.4 227.53,-93.06l145.99 0zm350.5 866.94c1.32,15.09 0.66,36.05 -3.28,64.56 -3.95,29.34 -5.27,51.14 -3.95,66.24 -1.32,-1.68 -5.92,-45.28 -13.82,-130.79l21.05 0zm-40.11 150.07c-7.89,13.42 -13.16,21.81 -16.44,26.83 -3.29,5.03 -4.61,6.71 -4.61,5.03 -5.26,0 -7.89,-5.87 -7.89,-16.77 1.31,-11.74 1.97,-20.97 1.97,-27.66 2.64,-1.68 6.58,-4.2 11.84,-6.71 4.61,-1.68 7.24,-5.03 7.24,-10.07 14.47,8.39 17.1,17.61 7.89,29.34zm731.91 306.87c-20.39,39.4 -35.5,68.75 -46.03,88.87 83.51,-126.61 128.89,-202.06 136.78,-226.38 -5.26,11.74 -10.52,15.93 -15.13,12.58l-19.73 -12.58 0 54.5c-1.32,0 -3.29,-1.68 -5.92,-5.03 -1.97,-3.36 -4.6,-5.03 -7.23,-5.03 -9.21,29.34 -23.02,60.36 -42.75,93.06zm847.65 -88.03c30.9,-29.34 46.69,-60.37 46.69,-91.39 -7.9,15.1 -31.57,41.92 -71.69,81.32 -32.21,31.02 -51.29,55.34 -57.87,73.79l82.86 -63.72zm-1757.11 -22.64c6.57,-39.41 22.36,-81.33 46.68,-127.45 28.27,-55.34 51.3,-67.92 69.05,-36.89 5.27,8.39 -5.92,31.02 -32.87,68.76 -30.25,39.4 -49.33,71.27 -55.9,95.58 -16.45,68.75 -11.84,136.66 13.81,202.06 20.39,53.66 52.61,96.41 96.01,127.44 80.22,58.69 165.72,63.73 258.44,15.1 91.4,-47.79 150.59,-124.93 177.56,-231.4 4.6,-6.71 9.86,-6.71 15.13,0 7.89,6.7 15.78,9.22 24.98,7.54 157.84,-232.24 255.82,-362.2 292.64,-388.19 37.48,-29.34 73.65,-41.92 108.51,-36.88 11.17,1.67 24.33,10.9 38.13,26.82 11.84,15.1 23.68,24.32 36.83,27.66 -6.58,62.05 -20.39,110.68 -40.78,146.73 30.91,-5.87 48.01,-48.63 51.95,-127.45 3.95,-78.81 -13.15,-125.77 -51.95,-142.53 -114.42,-10.06 -235.41,64.56 -363.65,223.87 -172.3,211.28 -268.96,324.47 -289.34,341.23 -39.46,25.99 -90.09,33.54 -149.93,21.81 -67.09,-10.91 -105.88,-44.44 -115.74,-100.61 -11.85,-67.08 13.15,-127.45 74.97,-181.94 90.08,-77.97 135.46,-119.06 136.78,-122.41 -20.39,-41.08 -32.23,-74.63 -34.85,-100.62 -5.93,-39.4 5.26,-68.75 34.85,-88.87 2.63,23.48 11.17,42.76 24.99,59.53l34.85 43.6 119.68 -98.09c42.09,-42.76 68.4,-93.07 78.91,-151.76 8.55,-1.68 16.45,0 23.02,6.71 6.58,8.38 13.81,11.74 23.02,10.06 17.77,-10.06 34.2,-28.5 48.01,-56.17l17.1 -36.89c6.58,-16.77 12.5,-29.34 17.76,-36.89 29.58,-11.74 45.37,-26.82 48,-44.44 24.34,-25.98 64.45,-52.82 119.69,-81.32 53.92,-29.34 95.35,-54.5 124.95,-75.46 18.41,-13.42 48,-43.6 90.75,-91.39l88.77 -103.13c74.31,-75.46 147.96,-103.12 221.61,-83.84 48.67,13.42 81.54,50.31 97.98,110.68 13.16,42.76 17.76,109 15.13,199.54 -7.23,253.21 -6.58,396.58 1.98,429.28 46.69,-10.9 90.74,-38.56 133.49,-80.48 4.6,-5.03 23.02,-24.32 53.92,-57.02 17.76,-20.96 34.85,-39.4 51.95,-53.66 25.64,-25.15 62.47,-57.01 111.8,-96.41 55.9,-46.95 96,-81.33 119.02,-103.13 128.89,-124.09 242.66,-208.77 343.27,-252.37 160.45,-72.11 283.42,-51.98 369.58,61.21 48.65,62.05 81.53,163.5 98.63,304.35 4.6,36.05 11.84,100.61 21.05,194.51 8.55,91.39 17.1,159.31 25,203.74 9.21,46.11 17.75,85.52 26.95,119.9 3.95,15.09 7.89,31.02 11.84,49.47 3.29,17.61 6.58,31.85 9.21,40.24 2.63,9.22 4.6,16.77 5.92,23.48 6.58,44.44 11.84,89.71 15.13,134.98 6.57,62.89 10.52,101.45 11.83,118.23 19.08,132.46 55.9,240.62 109.83,324.47 67.07,104.81 149.93,149.24 250.54,134.98 65.1,-10.06 217.67,-93.9 456.38,-250.68 34.85,-24.32 70.37,-51.15 105.87,-78.81 38.8,-27.67 76.29,-51.99 111.8,-73.79 88.77,-51.98 170.32,-71.27 244.62,-56.17 19.73,103.12 -11.18,186.96 -92.06,250.68 -142.7,115.71 -209.78,168.53 -200.57,156.79 -9.21,-12.58 -13.15,-17.61 -11.84,-14.25 -5.92,-3.36 -11.18,-1.68 -15.13,5.03 -17.75,12.58 -183.47,166.01 -497.14,458.62 -129.54,123.25 -259.09,210.44 -389.29,263.27 -188.74,78.8 -326.84,51.98 -414.3,-78.81 -55.24,-88.03 -104.55,-244.82 -147.96,-468.69 -87.45,-451.07 -134.8,-803.21 -142.7,-1058.93 -1.31,-8.38 -1.31,-14.25 0,-18.45 1.32,-4.19 4.61,-5.03 9.87,-4.19 5.26,1.68 7.24,0 7.24,-6.71 -1.32,-5.03 -2.64,-10.06 -3.29,-15.09 -18.42,-5.04 -38.14,1.67 -59.85,20.12 -1.31,1.68 -3.28,3.36 -5.91,5.87 -2.64,2.52 -5.92,5.87 -9.87,10.07 -3.94,4.19 -6.58,7.54 -9.21,10.9 -5.26,6.71 -13.81,14.25 -24.99,24.32 -15.79,11.74 -273.56,245.65 -774.66,702.6 -186.09,166.85 -326.83,311.06 -422.18,432.63 -110.48,139.18 -187.42,227.22 -230.82,264.95 -99.29,82.16 -208.46,115.7 -327.49,100.61 -82.19,-11.74 -136.77,-43.6 -163.74,-95.58 -29.59,-62.05 -28.27,-127.45 3.29,-196.19 41.43,-88.87 63.13,-150.92 65.76,-186.97 14.47,-13.42 57.22,-85.51 128.89,-216.32 21.05,-36.04 83.51,-119.89 188.73,-250.68 80.22,-99.78 130.2,-197.87 150.59,-294.29 33.53,-44.44 83.51,-125.77 149.93,-243.14 -44.72,17.61 -96.67,58.69 -155.85,122.41 -78.25,85.52 -128.23,136.66 -149.94,155.11l-3.94 39.41c-2.64,22.64 -5.92,37.72 -9.87,46.11 -16.45,5.03 -38.8,23.48 -67.08,57.01 -23.68,31.02 -48.66,46.11 -75.63,46.11 -29.58,83.84 -84.17,135.83 -163.74,157.63 -80.88,24.32 -155.19,12.58 -223.59,-34.37 -13.81,0 -19.74,-9.23 -17.1,-26.83 1.32,-21.8 -2.64,-36.05 -11.84,-41.92 1.31,0 0,0 -5.26,0 -5.26,0 -10.52,-0.84 -16.45,-1.67 -5.92,-0.84 -12.49,-0.84 -20.39,-0.84 -20.38,-3.36 -33.53,-11.74 -38.79,-25.16 13.15,-10.9 13.81,-35.21 1.97,-71.27 -17.76,-51.98 -27.61,-83 -28.92,-93.06l0 -113.19zm4598.6 1029.59c-3.29,-13.42 -3.95,-40.24 -1.97,-81.33 3.94,-46.95 12.49,-74.62 25.64,-80.48 -2.63,-1.68 -10.52,51.98 -23.68,161.82zm-51.95 61.21c-9.86,11.74 -16.45,23.48 -19.07,36.88 -9.21,-15.93 -7.9,-35.21 3.94,-56.17 11.19,-20.13 23.02,-25.16 34.85,-15.1 -1.31,11.74 -7.89,23.48 -19.73,34.38zm1075.18 -1807.66c-1.32,-5.03 -3.29,-7.55 -5.92,-7.55 0,-3.35 0.66,-4.19 1.98,-2.52 1.31,0 1.97,0.84 1.97,2.52l13.81 -31.86 1.97 2.52c1.31,6.71 -1.97,20.96 -9.86,44.44 -1.32,0 -2.64,-2.52 -3.95,-7.55zm-3124.93 4067.22c-38.14,8.39 -62.47,15.94 -71.02,22.65 2.63,-8.39 0.65,-13.42 -5.92,-15.1 -168.35,-60.37 -257.12,-104.8 -265.68,-132.47 76.94,116.55 195.97,167.69 357.74,155.11 -31.56,0 -36.82,-10.06 -15.13,-30.18zm493.2 -1261.83c-63.13,25.99 -113.77,50.31 -151.91,73.79 -7.89,5.87 -23.02,21.8 -44.71,46.11 -21.71,27.66 -37.48,45.27 -48,51.98 -34.86,24.32 -62.48,42.76 -82.86,56.18 -37.48,22.64 -65.1,41.92 -82.86,57.01 -13.81,10.9 -37.48,34.38 -69.05,70.43 -40.1,46.12 -63.12,71.28 -69.7,76.31 -3.95,5.03 -15.79,15.09 -36.83,29.34 -12.49,8.38 -24.33,17.61 -34.19,27.66 -155.85,176.91 -227.53,336.21 -215.7,478.75 9.87,120.74 103.91,193.67 280.8,218.83 147.97,19.29 288.03,-20.96 420.21,-120.74 49.99,-39.4 153.23,-142.53 310.39,-309.38l495.18 -542.46c8.54,-26.82 84.82,-139.17 226.88,-337.04 21.04,-53.66 56.55,-119.06 107.84,-196.19 69.71,-106.48 106.54,-166.01 111.8,-176.92 -196.62,73.79 -514.25,217.16 -953.52,430.12 -13.81,5.87 -68.4,28.5 -163.75,66.24zm714.82 -523.18c-133.5,15.93 -234.11,48.63 -302.51,98.09 -3.94,1.68 3.96,-1.67 24.34,-8.38 19.74,-7.55 54.59,-19.29 104.56,-36.05 49.98,-15.93 107.85,-34.37 173.62,-53.66zm88.77 631.34c-6.58,-13.42 -17.76,-17.61 -32.88,-12.58 -265.67,402.45 -563.57,747.04 -893.68,1033.79l1.97 5.03c0,5.03 0,10.06 0,15.09 1.31,10.9 -1.32,20.97 -7.9,29.34 -25.63,8.39 -63.78,25.16 -113.76,51.15 -49.98,26.82 -88.12,44.43 -113.77,54.5 153.88,-32.7 327.49,-150.08 520.17,-351.3l429.42 -464.5c114.42,-127.44 245.28,-300.99 391.26,-520.66 191.36,-281.71 316.97,-460.3 375.5,-535.76 2.63,0 3.95,-0.84 3.95,-1.68 2.62,-3.35 1.31,-5.03 -3.95,-5.03 -38.14,20.96 -96.67,44.43 -174.93,71.27 -183.47,258.24 -311.04,468.68 -381.41,631.34zm1639.4 -2405.45c-28.27,-5.87 -42.74,0 -44.06,20.12 23.03,0 37.48,-6.71 44.06,-20.12zm601.04 -471.2c-15.12,42.75 -18.41,70.43 -9.86,83.84 1.31,-8.39 2.63,-19.29 3.95,-32.7l5.91 -51.14zm-530.02 -203.74c-7.24,34.37 -23.68,47.79 -48.01,41.92 -1.32,0 -3.29,-0.84 -5.92,-2.52 -2.63,-1.68 -6.57,-4.19 -12.5,-6.71 -5.92,-2.51 -11.18,-5.03 -16.44,-8.38 -7.23,-3.36 -20.39,-7.55 -38.13,-12.58 -13.16,-1.68 -82.86,17.61 -210.44,57.01 -40.77,12.58 -107.19,36.89 -197.94,71.27 -76.29,122.42 -160.46,171.88 -254.49,147.57 -20.39,5.87 -44.06,31.85 -71.02,75.46 -25,39.4 -52.61,61.21 -82.86,63.72 -49.32,56.18 -104.56,215.48 -165.72,479.59 39.45,48.63 101.93,61.2 186.76,36.89 12.49,-1.68 48.01,-14.26 105.87,-36.89 37.48,-15.1 70.37,-24.32 99.96,-26.83 14.47,-31.85 56.55,-60.37 127.58,-86.35 16.44,-8.39 37.48,-20.13 63.13,-36.89 30.91,-17.61 53.27,-31.02 67.74,-39.4 7.89,-3.36 26.3,-6.71 55.9,-10.07 29.58,-2.51 47.99,-6.71 55.89,-11.74 7.89,-5.03 16.44,-14.25 26.96,-26.82 7.89,-11.74 14.47,-21.81 21.04,-30.18 53.93,-43.6 129.55,-71.27 227.54,-83 61.16,-10.07 134.15,-34.38 217.67,-73.79 92.06,-44.43 157.82,-71.27 196.62,-81.32 -1.32,15.09 36.82,-39.41 115.09,-161.82 3.94,5.03 -0.66,4.19 -13.16,-2.52 -17.76,-10.06 -57.87,-35.21 -119.69,-76.3 -21.7,16.77 -30.9,25.99 -26.95,29.34 0,-10.9 -3.95,-19.29 -11.19,-24.32 -2.63,-1.67 -7.89,-7.55 -15.78,-17.61 -1.32,10.06 -10.52,16.77 -28.93,20.13 -16.45,1.68 -29.59,-0.84 -38.14,-7.55 2.63,-12.58 2.63,-19.29 0,-19.29 -2.63,10.9 -6.58,17.61 -11.84,19.29l0 -26.82c-9.21,-3.36 -15.78,0 -21.05,10.06 -6.58,10.9 -13.81,15.09 -21.05,11.74 2.64,-17.61 3.96,-29.34 4.61,-34.37 0.66,-5.03 0,-7.55 -1.31,-9.23 -11.19,-10.06 -17.11,-10.9 -17.11,-2.51 0,1.67 0.66,4.19 1.98,9.22l0 -19.29c84.83,39.41 143.35,41.08 175.58,5.04l-3.95 29.34c23.02,-11.74 59.19,-8.39 107.85,10.06 39.46,15.93 67.74,17.61 84.83,4.19 -2.63,11.74 4.6,23.48 21.04,35.21 -26.95,-67.91 -84.82,-115.7 -173.6,-145.04 -40.78,-13.42 -121,-28.51 -240.68,-44.44l0 29.34c-1.32,16.77 -1.97,29.34 -1.97,39.41 -2.64,27.66 -10.53,41.92 -25,41.92 5.26,-25.16 5.26,-61.21 0,-110.68 -36.16,-10.06 -59.84,4.19 -71.03,41.92 -1.31,-13.42 -3.28,-22.64 -5.92,-28.5 -2.63,-5.87 -6.57,-7.55 -11.83,-5.87zm-302.5 1863.83c181.5,-60.37 280.15,-65.4 297.23,-14.26 11.19,31.02 -3.28,71.28 -44.71,119.9 -26.96,32.7 -57.87,61.21 -92.07,83.84 -26.29,15.94 -64.44,36.89 -115.73,61.21 -20.4,10.06 -42.75,20.97 -65.77,31.86 -23.02,11.74 -36.82,18.45 -40.11,20.12 -137.44,79.65 -271.59,171.88 -403.11,275.01 -70.37,10.06 -174.93,108.16 -313.68,294.29 -69.7,93.9 -145.32,207.93 -227.53,344.59 -238.7,395.74 -577.38,813.28 -1015.34,1252.62 -243.97,243.98 -474.13,375.62 -689.83,394.9 -237.39,20.12 -435.98,-64.57 -595.12,-252.37 -99.96,-118.22 -153.88,-256.56 -161.78,-415.02 -6.57,-166.02 26.97,-332.86 99.96,-501.38 65.77,-154.27 137.44,-270.82 215.7,-351.3 5.26,-5.04 24.34,-21.81 57.86,-49.47 33.54,-27.66 52.61,-43.6 57.88,-48.63 261.06,-255.72 580.66,-455.27 959.44,-599.47 100.61,-37.73 262.38,-90.55 485.31,-157.63 213.72,-62.05 378.13,-114.87 493.2,-159.3 163.74,-60.37 264.36,-102.29 302.5,-124.93 9.21,-5.03 19.73,-13.42 30.9,-25.16l30.91 -24.32c24.33,39.4 68.39,46.11 130.85,19.29 25.64,-9.23 55.9,-43.6 90.75,-103.13 37.48,-65.4 62.47,-103.13 74.97,-112.35 -2.63,-11.74 -7.89,-28.5 -17.1,-49.47 -9.21,-22.64 -13.81,-40.24 -15.13,-51.98 36.82,-86.36 62.48,-125.77 76.94,-117.38 -14.47,17.61 -13.16,31.01 3.94,39.4 23.02,10.9 34.19,19.29 34.19,24.32 23.02,-11.74 69.71,-72.95 138.76,-184.45l121.66 -196.19c-1.32,-36.05 2.62,-71.27 11.17,-105.64 5.27,-5.04 16.45,-10.91 32.88,-17.61 15.79,-7.55 26.3,-15.94 32.88,-24.32 15.13,-19.29 30.25,-59.53 44.06,-119.9 15.78,-70.43 26.29,-115.71 32.87,-135.82 -40.76,21.8 -122.97,61.2 -246.59,118.22l-244.63 115.7c-214.38,103.13 -397.85,154.27 -551.07,154.27 -132.17,0 -228.19,-29.34 -288.68,-88.03 -60.51,-58.69 -85.49,-146.72 -74.97,-263.27 11.18,-146.72 90.08,-320.28 236.73,-520.66 105.21,-147.57 226.87,-264.11 364.31,-351.3 246.6,-158.47 588.56,-271.66 1026.52,-338.73 102.58,-17.61 215.03,-15.93 337.34,7.55 47.35,6.71 121,35.21 221.62,85.52 87.46,42.76 158.48,65.4 213.72,68.75 49.98,1.68 126.92,-21.8 230.82,-71.27 127.57,-60.37 199.25,-90.55 216.35,-90.55 43.4,0 91.4,29.35 144.01,88.04 51.3,59.53 77.59,111.51 77.59,157.62 -2.62,58.69 -36.16,103.97 -100.61,134.99 -30.9,13.41 -59.19,23.48 -84.82,31.85 -28.28,10.07 -53.27,20.97 -74.98,31.86 -56.55,29.34 -203.86,134.14 -441.25,314.41 -47.34,37.73 -161.76,158.47 -342.61,361.37 -626.03,705.95 -954.82,1073.18 -988.37,1102.53 74.31,-1.68 177.56,-24.32 309.73,-68.76z"/>
   </g>
   <path class="fil1" d="M12077.75 15000.24c370.19,-26.4 724.3,-83.6 1072.31,-62.13 158.97,9.79 358.1,149.88 435.56,279.98 36.7,61.62 -139.06,293.64 -271.85,352.17 -305.77,134.88 -653.05,192.68 -966.98,315.43 -385.61,150.73 -395.18,394.42 -55.75,605.93 516.89,322.17 725.71,804.43 761.02,1333.14 10.35,154.83 -167.38,388.27 -328.62,458.9 -102.12,44.77 -348.99,-126.9 -500.93,-235.11 -109.36,-77.81 -169.24,-211.09 -333.93,-307.11l0 1902.23c1031.52,-1067.01 2323.21,-1836.82 2910.36,-3276.35 -478.78,65.18 -866.97,112.91 -1252.99,172.05 -382.1,58.49 -560.81,-40.45 -637.55,-320.52 805.49,-229.66 1609.34,-450.91 2404.08,-695.75 97.42,-30.01 204.67,-185.12 207.56,-284.6 17.74,-604.77 92.09,-1209.13 -249.6,-1788.52 -234.51,-397.64 195.82,-1037.33 696.07,-1143.09 466.68,-98.65 414.92,249.37 421.9,445.47 17.84,504.65 -32.46,1011.05 -48.09,1516.94 -8.43,272.42 -1.5,545.23 -1.5,936.42 402.57,-123.08 702.8,-261.92 1017.92,-298.44 340.78,-39.47 697.43,2.5 1042.39,42.2 74.42,8.58 202.29,209.3 179.48,236.11 -128.02,150.53 -270.81,343.91 -452.98,393.95 -377.33,103.69 -787.66,107.8 -1174.19,190.83 -179.38,38.55 -413.43,133.79 -479.41,262.07 -68.73,133.69 -17.69,365.33 73.49,506.55 284.08,440.01 582,878.34 930.36,1278.61 456.87,524.97 947,1029.94 1459.23,1512.75 632.42,596.14 1440.66,941.58 2312.39,1177.25 67.43,18.23 127.16,68.96 180.98,113.7 29.43,24.46 38.94,68.05 87.75,160.13 -640.95,124.51 -1270.16,218.49 -1879.57,374.3 -460.18,117.67 -784.66,-14.65 -1040.47,-321.34 -521.3,-625.1 -1031.62,-1257.9 -1527.88,-1898.96 -214.66,-277.3 -383.29,-582.99 -598.14,-914.85 -297.03,434.21 -95.71,850.96 -82.99,1254.15 34.39,1088.8 136.41,2188.72 -395.28,3213.43 -130.61,251.73 -424.18,436.1 -642.81,651.41 -162.42,-251.08 -330.53,-499.43 -485.56,-754.12 -127.12,-208.79 -239.52,-424.74 -356.64,-638.29 -37.6,-68.46 -118.33,-176.26 -94.06,-201.86 55.11,-58.37 161.08,-102.12 249.8,-107.71 634.9,-39.98 761.24,-129.26 788.23,-680.77 46.43,-948.17 75.55,-1897.24 88.47,-2846.21 0.78,-57.29 -263.87,-189.91 -304.52,-163.65 -297.79,192.74 -590.06,399.63 -846.34,634.8 -690.96,634.05 -1373.33,1265.91 -2329,1600.14 -177.16,62 -327.58,264.01 -416.83,432.46 -265.49,501.05 -482.11,1022.73 -747.21,1523.97 -56.83,107.42 -246.56,233.34 -358.63,221.96 -111.84,-11.37 -222.82,-173.86 -299.81,-288.47 -257.15,-382.89 -499.21,-773.84 -746.49,-1161.97 -64.79,-101.7 -127.72,-204.36 -216.25,-346.21 157.51,-50.14 274.33,-108.22 397.8,-123.45 1049.62,-129.71 1163.24,-215.35 1279.43,-1151.77 42.82,-345.24 6.92,-698.25 -100.27,-1095.3 -464.62,402.72 -914.65,820.08 -1398.3,1203.68 -407.79,323.48 -838.24,630.05 -1293.59,896.48 -144.69,84.66 -401.69,16.44 -607.29,18.14 77.41,-143.55 125.86,-308.63 236.73,-427.28 894.95,-957.69 1803.03,-1905.61 2701.55,-2860.7 56.78,-60.34 66.56,-155.94 109.78,-264.2 -454.94,57.25 -879.69,203.81 -1250.76,131.28 -374.45,-73.21 -695.57,-363.8 -1157.86,-625.96 262.22,-65.28 401.73,-106.27 544.46,-134.42 735.79,-145.18 1475.86,-275.05 2205.35,-441.87 121.83,-27.88 269.88,-205.1 283.37,-324.34 38.88,-343.63 25.08,-693.23 12.31,-1039.92 -7.87,-212.34 57.14,-465.23 -307.05,-540.01 -44.94,-9.23 -94.22,-304.49 -41.89,-336.19 234.35,-142 521.65,-342.66 756.51,-312.9 171.27,21.7 386.34,360.04 413.74,574.31 61.85,483.29 19.46,977.18 19.46,1491.02z"/>
  </g>
 </g>
</svg>
